<svg width="10" height="9" viewBox="0 0 10 9" fill="none" xmlns="http://www.w3.org/2000/svg">
<path fill-rule="evenodd" clip-rule="evenodd" d="M1.12433 0.385986C1.47491 0.0408936 2.03741 0.0408936 2.388 0.385986L8.00275 5.95398V2.78198C8.00275 2.46289 8.17316 2.16809 8.44904 2.00854C8.7254 1.84906 9.06622 1.84906 9.3421 2.00854C9.61847 2.16809 9.78888 2.46289 9.78888 2.78198V8.09198C9.78888 8.22656 9.75763 8.35944 9.69806 8.47992V8.48999V8.495C9.59894 8.68555 9.43488 8.83392 9.23517 8.91302H9.22394H9.21906C9.11847 8.95074 9.01202 8.97003 8.9046 8.97003H3.55109C3.23468 8.97003 2.9422 8.80127 2.784 8.52728C2.62628 8.25329 2.62628 7.91577 2.784 7.64178C2.9422 7.3678 3.23468 7.19904 3.55109 7.19904H6.75128L1.13507 1.63104C0.968078 1.46576 0.874329 1.24054 0.874329 1.00555C0.874329 0.770569 0.968078 0.545349 1.13507 0.380066L1.12433 0.385986Z" fill="#EA3A3D"/>
</svg>
