<svg width="10" height="10" viewBox="0 0 10 10" fill="none" xmlns="http://www.w3.org/2000/svg">
<path fill-rule="evenodd" clip-rule="evenodd" d="M1.16901 8.75586C0.823914 8.40527 0.823914 7.84277 1.16901 7.49219L6.737 1.87744H3.565C3.24591 1.87744 2.95111 1.70703 2.79156 1.43115C2.63208 1.15479 2.63208 0.813965 2.79156 0.538086C2.95111 0.261719 3.24591 0.0913086 3.565 0.0913086H8.87299C8.98651 0.0913086 9.09894 0.113281 9.20398 0.15625H9.21198H9.21899C9.46368 0.262207 9.6474 0.473145 9.71899 0.730469V0.738281V0.74707C9.73883 0.822754 9.74896 0.899902 9.74902 0.977539V6.33105C9.74902 6.64746 9.58032 6.93945 9.30652 7.09766C9.03271 7.25537 8.69531 7.25537 8.42151 7.09766C8.1477 6.93945 7.979 6.64746 7.979 6.33105V3.13086L2.41101 8.74707C2.24573 8.91406 2.02051 9.00781 1.78552 9.00781C1.55054 9.00781 1.32532 8.91406 1.16003 8.74707L1.16901 8.75586Z" fill="#1AD598"/>
</svg>
