
<svg width="138px" height="41px" viewBox="0 0 138 41" version="1.1" xmlns="http://www.w3.org/2000/svg" xmlns:xlink="http://www.w3.org/1999/xlink">
    <g id="Symbols" stroke="none" stroke-width="1" fill="none" fill-rule="evenodd">
        <g id="NAV" transform="translate(0.000000, -12.000000)">
            <g id="Group-16" transform="translate(0.000000, 11.999061)">
                <g id="Group-3" transform="translate(-0.000000, 0.000000)">
                    <path d="M20.4518645,35.5689532 C23.9765104,35.5689532 26.8412033,40.0717527 29.1339822,38.6246893 C34.1832583,35.4378916 36.3897675,29.1234434 36.3897675,21.3612864 C36.3897675,15.0568504 38.0194951,8.49524244 33.5322122,4.74642396 C32.5867742,3.95657499 31.5688633,3.25057554 30.4899102,2.63985603 C27.5217777,0.959804982 25.7458904,7.24768877 22.0918229,7.24768877 C19.4095733,7.24768877 18.2030787,4.03314968 15.8563258,4.9724982 C13.7341252,5.82196382 10.4545637,5.143997 8.75329753,6.615075 C6.75000088,8.34731754 6.54234023,9.93831462 5.33285898,12.3223198 C4.31696088,14.3247539 3.05710156,15.0373097 2.74876786,17.3520464 C2.630055,18.2432529 1.69163968,19.5263241 1.69163968,20.4499988 C1.69163968,23.6878248 3.46609922,24.3649803 4.80647775,27.0855255 C6.40051467,30.3209172 6.11326293,35.4456144 9.09040838,37.4368252 C10.1130969,38.1208323 11.2009609,38.7150031 12.3427136,39.2080509 C14.8249706,40.2799741 17.576172,35.5689532 20.4518645,35.5689532 Z" id="Oval" fill="#FFFFFF"></path>
                    <path d="M33.2424092,4.499133 L33.2424092,33.4769612 L30.5237388,33.4769612 L27.4958863,33.4769612 L24.8571768,33.4769612 L24.8571768,24.7798812 L24.8571768,24.3880728 L24.4680337,24.3880728 L18.4096633,24.3880728 L18.0178549,24.3880728 L18.0178549,24.7798812 L18.0178549,33.4769612 L15.7709538,33.4769612 L15.7709538,22.1411717 L18.4096633,22.1411717 L24.4680337,22.1411717 L27.1040779,22.1411717 L27.1040779,30.8382517 L27.1040779,31.2273947 L27.4958863,31.2273947 L30.4277857,31.2273947 L30.8169288,31.2273947 L30.8169288,30.8382517 L30.8169288,2.82528494 C27.7784148,1.03149554 24.2361471,-1.51260961e-15 20.4513315,-1.51260961e-15 C9.15818779,-1.51260961e-15 0,9.15552243 0,20.4513315 C0,27.7410997 3.8194654,34.1353059 9.56065763,37.7575344 L9.56065763,27.3626181 L9.56065763,26.9708097 L9.16884924,26.9708097 L5.16813915,26.9708097 L5.16813915,24.7239086 L9.16884924,24.7239086 L9.56065763,24.7239086 L9.56065763,24.3321002 L9.56065763,21.8906276 L9.56065763,21.4988192 L9.16884924,21.4988192 L2.52942963,21.4988192 L2.52942963,19.251918 L9.16884924,19.251918 L9.56065763,19.251918 L9.56065763,18.862775 L9.56065763,16.2773728 L9.56065763,15.8882297 L9.16884924,15.8882297 L5.16813915,15.8882297 L5.16813915,13.6413286 L9.16884924,13.6413286 L9.56065763,13.6413286 L9.56065763,13.2495202 L9.56065763,7.13517716 L12.3512928,7.13517716 L15.3791454,7.13517716 L18.0178549,7.13517716 L18.0178549,15.8322571 L18.0178549,16.2240655 L18.4096633,16.2240655 L24.4680337,16.2240655 L24.8571768,16.2240655 L24.8571768,15.8322571 L24.8571768,7.13517716 L27.1040779,7.13517716 L27.1040779,18.4709666 L24.4680337,18.4709666 L18.4096633,18.4709666 L15.7709538,18.4709666 L15.7709538,9.77388668 L15.7709538,9.3820783 L15.3791454,9.3820783 L12.3752811,9.3820783 L11.9861381,9.3820783 L11.9861381,9.77388668 L11.9861381,39.0662277 C14.5662096,40.2416529 17.431475,40.8999976 20.4513315,40.8999976 C31.7471405,40.8999976 40.9026629,31.7444751 40.9026629,20.4513315 C40.9026629,13.9984873 37.9094601,8.24663359 33.2424092,4.499133" id="Fill-1" fill="#0098FF"></path>
                </g>
                <polygon id="Fill-8" fill="#FFFFFF" points="62.5691335 17.9352287 54.7836077 17.9352287 54.7836077 10.458885 47.930959 10.458885 47.930959 32.264221 54.7836077 32.264221 54.7836077 24.0095913 62.5691335 24.0095913 62.5691335 32.264221 69.4217821 32.264221 69.4217821 10.458885 62.5691335 10.458885"></polygon>
                <path d="M88.363985,24.1639158 C87.9695112,24.9768516 87.409785,25.6032119 86.6821408,26.0483275 C85.9544967,26.4961086 85.0829229,26.7199991 84.0647542,26.7199991 C83.0465855,26.7199991 82.1750117,26.4961086 81.4473676,26.0483275 C80.7223888,25.6032119 80.1599972,24.9768516 79.7655234,24.1639158 C79.3710497,23.3536454 79.1738128,22.4207683 79.1738128,21.3599538 C79.1738128,20.2831471 79.3710497,19.3422739 79.7655234,18.5426649 C80.1599972,17.743056 80.7223888,17.119361 81.4473676,16.67158 C82.1750117,16.2264643 83.0465855,16.0025738 84.0647542,16.0025738 C85.1442263,16.0025738 86.0424537,16.2264643 86.7594364,16.67158 C87.476419,17.119361 88.0201531,17.743056 88.3959693,18.5426649 C88.7664548,19.3422739 88.9556956,20.2831471 88.9556956,21.3599538 C88.9556956,22.4207683 88.7557934,23.3536454 88.363985,24.1639158 M92.7538381,12.9827174 C91.6530431,11.9645487 90.3683381,11.1862626 88.8917269,10.6478593 C87.4204464,10.1067905 85.8105671,9.83492349 84.0647542,9.83492349 C82.3615872,9.83492349 80.7730307,10.1067905 79.2990849,10.6478593 C77.8251391,11.1862626 76.5351033,11.9645487 75.4343083,12.9827174 C74.3335133,14.0008861 73.472601,15.2162917 72.8515714,16.6262688 C72.2278764,18.0389113 71.916029,19.6168063 71.916029,21.3599538 C71.916029,23.108432 72.2118843,24.6996538 72.8035949,26.1416153 C73.3953055,27.5862421 74.2322295,28.8389628 75.3117016,29.8944466 C76.3911737,30.9552611 77.6732134,31.7708622 79.1578206,32.34125 C80.6450933,32.9116377 82.2789609,33.1994969 84.0647542,33.1994969 C85.8505475,33.1994969 87.4870805,32.9116377 88.9716878,32.34125 C90.456295,31.7708622 91.7383347,30.9552611 92.8178068,29.8944466 C93.8972789,28.8389628 94.7342029,27.5862421 95.3259135,26.1416153 C95.9176241,24.6996538 96.2134795,23.108432 96.2134795,21.3599538 C96.2134795,19.6168063 95.9122934,18.0389113 95.3099213,16.6262688 C94.7075493,15.2162917 93.8572984,14.0008861 92.7538381,12.9827174" id="Fill-10" fill="#FFFFFF"></path>
                <path d="M111.771737,24.0415756 C111.449228,24.7052511 111.030766,25.203674 110.508355,25.5368444 C109.991275,25.8700148 109.420887,26.0885745 108.797192,26.1898583 C108.173497,26.2938075 107.560463,26.3444494 106.958091,26.3444494 L105.835974,26.3444494 L105.835974,16.3786566 L106.958091,16.3786566 C107.560463,16.3786566 108.173497,16.4319638 108.797192,16.5332476 C109.420887,16.6371968 109.991275,16.8557566 110.508355,17.188927 C111.030766,17.519432 111.449228,18.0178549 111.771737,18.6815303 C112.094246,19.3478711 112.256833,20.2407678 112.256833,21.3602203 C112.256833,22.4823382 112.094246,23.3752348 111.771737,24.0415756 M113.797413,11.7675783 C111.979636,10.8933392 109.804699,10.458885 107.272604,10.458885 L105.835974,10.458885 L103.439812,10.458885 L98.7061271,10.458885 L98.7061271,32.264221 L103.439812,32.264221 L105.835974,32.264221 L107.272604,32.264221 C109.804699,32.264221 111.979636,31.8271014 113.797413,30.9555276 C115.612526,30.0839539 117.00651,28.8338986 117.971372,27.2026963 C118.936233,25.5714941 119.418664,23.625779 119.418664,21.3602203 C119.418664,19.0786694 118.936233,17.1249583 117.971372,15.5044175 C117.00651,13.8838767 115.612526,12.6391521 113.797413,11.7675783" id="Fill-12" fill="#FFFFFF"></path>
                <polygon id="Fill-14" fill="#FFFFFF" points="128.766093 26.5011727 128.766093 10.4583519 121.913444 10.4583519 121.913444 32.2636879 137.641752 32.2636879 137.641752 26.5011727"></polygon>
            </g>
        </g>
    </g>
</svg>
