<svg version="1.2" xmlns="http://www.w3.org/2000/svg" viewBox="0 0 115 115" width="115" height="115">
	<title>hodl-logo-svg</title>
	<style>
		.s0 { fill: #0098ff } 
		.s1 { fill: #ffffff } 
	</style>
	<g id="Layer">
		<g id="Layer">
			<g id="Layer">
				<path id="Layer" class="s0" d="m115.1 57.7c0 31.7-25.7 57.4-57.4 57.4-8.4 0-16.5-1.9-23.7-5.2v-82.1-1.1h1.1 8.4 1.1v1.1 24.4h7.4 17 7.4v-31.8h-6.3v24.4 1.1h-1.1-17-1.1v-1.1-24.4h-7.4-8.5-7.8v17.1 1.1h-1.1-11.2v6.3h11.2 1.1v1.1 7.3 1.1h-1.1-18.6v6.3h18.6 1.1v1.1 6.8 1.1h-1.1-11.2v6.3h11.2 1.1v1.1 29.2c-16.1-10.2-26.8-28.1-26.8-48.6 0-31.6 25.7-57.3 57.3-57.3 10.7 0 20.6 2.9 29.1 7.9v78.6 1.1h-1.1-8.2-1.1v-1.1-24.4h-7.4-17-7.4v31.8h6.3v-24.4-1.1h1.1 17 1.1v1.1 24.4h7.4 8.5 7.6v-81.3c13.1 10.5 21.5 26.6 21.5 44.7z"/>
				<path id="Layer" class="s1" d="m69 68.8h-17-1.1v1.1 24.4h-6.3v-31.8h7.4 17 7.4v24.4 1.1h1.1 8.2 1.1v-1.1-78.6q3.6 2.1 6.8 4.7v81.3h-7.6-8.5-7.4v-24.4-1.1c0 0-1.1 0-1.1 0z"/>
				<path id="Layer" class="s1" d="m34 27.8v82.1q-3.6-1.6-6.8-3.6v-29.2-1.1h-1.1-11.2v-6.3h11.2 1.1v-1.1-6.8-1.1h-1.1-18.6v-6.3h18.6 1.1v-1.1-7.3-1.1h-1.1-11.2v-6.3h11.2 1.1v-1.1-17.1h7.8 8.5 7.4v24.4 1.1h1.1 17 1.1v-1.1-24.4h6.3v31.8h-7.4-17-7.4v-24.4-1.1h-1.1-8.4-1.1z"/>
			</g>
		</g>
	</g>
</svg>